<svg xmlns="http://www.w3.org/2000/svg" width="99" height="34" fill="none" viewBox="0 0 99 34">
    <path fill="#000" d="M6.177 33.062c-.71 0-1.509.045-2.352.09-.843.044-1.553.088-2.13.088-.178 0-.355 0-.533-.044-.222 0-.355-.178-.355-.4v-.044c0-.222.133-.444.355-.577.444-.266.977-.444 1.51-.488.266-.045.532-.09.798-.178.266-.089.533-.222.71-.444.222-.266.4-.577.533-.932.133-.532.222-1.11.177-1.686V5.059c0-.222-.133-.444-.355-.532-.266-.133-.577-.222-.887-.267-.355-.044-.71-.088-1.11-.088-.4 0-.754-.045-1.065-.09C.896 4.04.541 3.95.319 3.906c-.222-.044-.355-.266-.31-.488 0-.177.088-.355.221-.488.134-.133.311-.222.533-.266.222-.045.4-.089.621-.089.222 0 .4-.044.577-.044h4.527c1.242 0 2.485-.045 3.728-.133 1.242-.09 2.662-.134 4.26-.134 2.485 0 4.97.311 7.367.977 2.174.621 4.216 1.642 5.991 3.062 1.73 1.464 3.151 3.284 4.039 5.325 1.065 2.441 1.553 5.06 1.509 7.722 0 1.82-.4 3.64-1.243 5.281-.799 1.642-1.908 3.107-3.329 4.305-1.464 1.243-3.106 2.264-4.881 2.93-1.909.71-3.95 1.064-5.991 1.064H6.178v.133zm2.974-6.213c0 .8.177 1.554.532 2.22.355.62.843 1.153 1.465 1.553.62.443 1.331.754 2.041.931.755.178 1.553.311 2.352.311.799 0 1.598-.133 2.352-.31.977-.222 1.909-.533 2.796-.932 1.02-.444 1.997-1.021 2.885-1.687.976-.71 1.864-1.553 2.574-2.53.799-1.02 1.42-2.174 1.864-3.417.488-1.464.71-2.973.71-4.482 0-1.553-.222-3.15-.71-4.615-.843-2.619-2.486-4.882-4.66-6.568-1.02-.755-2.13-1.465-3.284-1.997-2.13-.977-4.394-1.51-6.746-1.554-.799 0-1.597.045-2.396.133-.444.045-.844.178-1.243.355-.222.09-.4.311-.488.533-.044.177-.089.355-.089.533l.045 21.523zM43.5 33.95c-.977.044-1.997-.133-2.93-.488-.754-.31-1.375-.8-1.819-1.42-.444-.666-.799-1.42-.932-2.22-.177-.931-.266-1.908-.266-2.884 0-.754 0-1.598.044-2.53 0-.932.045-1.864.045-2.796 0-.976 0-1.908.044-2.795 0-.932.044-1.731.044-2.441.045-.31-.177-.622-.488-.71-.31-.089-.665-.178-.932-.267-.399-.088-.798-.221-1.198-.355-.177-.044-.31-.177-.31-.355 0-.177.133-.355.31-.399h.044c.311-.044.578-.044.888-.044.355 0 .71 0 1.065.044s.71.044 1.065.044.755 0 1.11-.044c.355-.044.754-.044 1.11-.044.354 0 .532.044.62.177.09.222.134.488.134.755 0 2.218 0 4.438-.045 6.656-.044 2.22-.044 4.394-.044 6.657-.044.888.355 1.775 1.02 2.352.844.577 1.865.888 2.885.8 1.11.044 2.175-.09 3.24-.4.666-.178 1.243-.533 1.775-1.021.4-.4.666-.888.755-1.42.133-.488.177-1.02.177-1.553 0-1.775 0-3.55.044-5.326.045-1.775.045-3.506.045-5.325 0-.133-.044-.222-.089-.355-.089-.133-.222-.222-.355-.267-.177-.044-.444-.133-.754-.222-.311-.088-.8-.221-1.376-.354-.178-.045-.488-.178-.888-.311s-.577-.31-.577-.488.133-.267.355-.311c.267-.044.489-.089.755-.089.444 0 .843 0 1.287.045.4.044.843.044 1.287.044.488 0 .976 0 1.464-.044.488-.045.977-.045 1.465-.045.222 0 .444.089.666.178.266.133.399.4.399.887 0 2.53-.044 5.015-.089 7.545-.044 2.485-.089 5.015-.089 7.544 0 .533.178.843.489.976.266.134.532.178.798.178.977 0 1.642 0 1.998.044.399.045.576.178.576.444 0 .178-.088.31-.222.4-.266.088-.488.177-.754.177-1.775.266-3.15.488-4.127.666-.622.133-1.243.222-1.864.31-.178 0-.31-.088-.355-.221-.044-.178-.044-.4-.044-.577v-1.154c0-.4-.134-.577-.356-.577-.31.044-.62.222-.843.444-.355.31-.843.621-1.42 1.02-.621.4-1.331.755-2.041 1.021-1.021.31-1.909.488-2.796.444zM62.317 4.749c.044-.489-.09-1.021-.355-1.42-.222-.267-.533-.489-.844-.578-.31-.133-.577-.221-.843-.266-.222-.044-.4-.222-.355-.444 0-.177.089-.31.267-.355.266-.133.532-.221.798-.31L64.358.089c.133-.045.266-.089.4-.089h.443c.134 0 .267.089.355.178.133.221.222.488.178.71v20.458c0 .533.133.8.444.8.266-.09.532-.178.754-.312.444-.221.977-.488 1.553-.843.577-.355 1.243-.754 1.909-1.154.665-.443 1.287-.843 1.864-1.242.577-.4 1.02-.755 1.42-1.065.4-.31.577-.577.577-.71 0-.267-.09-.577-.311-.755-.178-.177-.4-.31-.666-.444-.222-.133-.444-.222-.665-.355-.178-.088-.311-.266-.311-.488 0-.133.089-.266.222-.355.133-.089.31-.133.488-.133.533 0 1.154 0 1.82.044.665.045 1.33.045 1.997.045.62 0 1.287 0 1.952-.045.666-.044 1.287-.044 1.775-.044.222 0 .444.044.666.089.222.089.31.266.31.488 0 .133-.088.266-.266.355-.221.133-.443.222-.665.31-.266.09-.533.178-.843.267-.267.089-.489.177-.666.222-.355.177-1.065.532-2.13 1.11-1.065.576-2.13 1.197-3.24 1.863-1.11.666-2.086 1.287-2.973 1.864-.843.577-1.287.932-1.287 1.065 0 .133.044.31.133.444l.266.266 8.61 7.811c.444.4.932.754 1.464 1.065.488.222.888.444 1.287.577.355.133.666.266.888.355.222.089.31.222.31.4 0 .31-.443.488-1.287.488-.532 0-1.11-.045-1.73-.09-.622-.043-1.332-.088-2.086-.088-.621 0-1.243.044-1.908.089-.577.044-1.199.089-1.776.089-.4 0-.754 0-1.153-.09-.222-.043-.356-.221-.356-.398 0-.222.178-.444.4-.489.355-.088.71-.177 1.065-.222.222-.044.488-.088.666-.266.177-.089.266-.266.266-.444 0-.177-.178-.444-.533-.799l-7.5-7.1c-.222-.178-.355-.31-.444-.31-.221 0-.355.088-.355.266v7.056c-.044.444.09.843.356 1.154.221.177.443.355.71.399.31.133.665.222 1.02.266.267.045.444.178.444.444 0 .178-.133.31-.355.4-.266.044-.532.088-.754.088-.577 0-1.154-.044-1.687-.088-.532-.045-1.11-.09-1.642-.09-.621 0-1.242.045-1.908.09-.666.044-1.243.088-1.686.088-.222 0-.489-.044-.71-.088-.311-.045-.489-.178-.489-.444 0-.178.089-.4.267-.489.221-.088.443-.177.665-.221.31-.09.666-.178.932-.267.267-.044.533-.177.799-.31.222-.133.4-.355.533-.577.133-.4.177-.799.177-1.198l-.044-24.941zM85.749 21.524c-.09.222-.09.444-.09.71v1.065c0 1.02.09 2.086.267 3.107.178.931.533 1.864 1.065 2.662.577.8 1.332 1.465 2.175 1.864 1.154.533 2.44.755 3.683.71.755.045 1.51-.088 2.22-.31.443-.134.887-.4 1.242-.666.266-.222.488-.444.71-.71.133-.178.31-.31.532-.31.311 0 .444.132.444.399-.088.266-.222.532-.4.754-.354.533-.798.976-1.286 1.331-.71.533-1.465.977-2.263 1.287-1.066.4-2.175.622-3.285.577-2.751 0-4.881-.887-6.39-2.707-1.509-1.82-2.263-4.26-2.263-7.411 0-1.243.177-2.44.532-3.595.355-1.198.932-2.352 1.642-3.372.755-1.021 1.731-1.864 2.796-2.53 1.243-.71 2.618-1.02 4.039-.976 1.242-.045 2.485.221 3.594.798.888.489 1.731 1.11 2.352 1.909.577.665 1.021 1.464 1.287 2.307.222.622.355 1.287.4 1.997.044.311-.045.622-.178.932-.133.134-.4.222-.799.222l-12.026-.044zm4.748-1.509c.888 0 1.775-.044 2.619-.133.532-.045 1.065-.178 1.553-.444.31-.133.577-.4.71-.754.133-.355.177-.755.177-1.154 0-.843-.399-1.642-1.065-2.175-.754-.577-1.686-.887-2.618-.887-.843 0-1.686.177-2.397.576-.665.356-1.287.8-1.775 1.376-.443.488-.843 1.021-1.11 1.642-.221.444-.354.932-.398 1.42 0 .09 0 .178.088.222.133.09.31.133.488.133.267.045.71.045 1.287.09.533.088 1.376.088 2.441.088z"/>
</svg>
